<svg xmlns="http://www.w3.org/2000/svg" width="64" height="64" viewBox="0 0 64 64" role="img" aria-label="Askia">
  <defs>
    <linearGradient id="g" x1="0" y1="0" x2="1" y2="1">
      <stop offset="0" stop-color="#72d6ff" />
      <stop offset="1" stop-color="#3ca2d8" />
    </linearGradient>
  </defs>
  <rect width="64" height="64" rx="18" fill="#0f1822" />
  <path d="M18 32c0-9 7-16 16-16 6 0 11 3 14 7l-7 4c-2-2-4-3-7-3-5 0-9 4-9 9s4 9 9 9c3 0 5-1 7-3l7 4c-3 4-8 7-14 7-9 0-16-7-16-16z" fill="url(#g)" />
</svg>
